<svg xmlns="http://www.w3.org/2000/svg" xmlns:xlink="http://www.w3.org/1999/xlink" version="1.1" id="Ebene_1" x="0px" y="0px" viewBox="0 0 512 512" style="enable-background:new 0 0 512 512;" xml:space="preserve"><script xmlns="" id="eppiocemhmnlbhjplcgkofciiegomcon"/><script xmlns=""/><script xmlns=""/>
<style type="text/css">
	.st0 {
			fill: #b7e3f7;
		}

		.st1 {
			fill: #26A2D6;
		}
</style>
<path class="st0" d="M482.8,88.6L396.2,8.1H256H115.8L29.2,88.6c0,0-24.7,243.2,149.7,414.9c37.1,0,77,0,77,0s39.9,0,77,0  C507.5,331.8,482.8,88.6,482.8,88.6"/>
<path class="st1" d="M181.2,497.9L181.2,497.9h149.5C491.1,338.5,479.2,114.9,477.4,91.2L394,13.7H118L34.6,91.2  C32.8,114.9,20.9,338.5,181.2,497.9 M335.3,509H176.7l-1.6-1.6C0.7,335.9,23.4,90.5,23.7,88l0.2-2.1l89.8-83.3h284.7l89.8,83.3  l0.2,2.1c0.3,2.5,23,247.9-151.4,419.4L335.3,509z"/>
<script xmlns=""/></svg>